<?xml version="1.0" encoding="UTF-8" standalone="no"?>
<svg
   xmlns:dc="http://purl.org/dc/elements/1.1/"
   xmlns:cc="http://creativecommons.org/ns#"
   xmlns:rdf="http://www.w3.org/1999/02/22-rdf-syntax-ns#"
   xmlns:svg="http://www.w3.org/2000/svg"
   xmlns="http://www.w3.org/2000/svg"
   viewBox="0 0 201.33333 54.666668"
   height="54.666668"
   width="201.33333"
   xml:space="preserve"
   id="svg2"
   version="1.1"><metadata
     id="metadata8"><rdf:RDF><cc:Work
         rdf:about=""><dc:format>image/svg+xml</dc:format><dc:type
           rdf:resource="http://purl.org/dc/dcmitype/StillImage" /></cc:Work></rdf:RDF></metadata><defs
     id="defs6" /><g
     transform="matrix(1.3333333,0,0,-1.3333333,0,54.666667)"
     id="g10"><g
       transform="scale(0.1)"
       id="g12"><path
         id="path14"
         style="fill:#e3c230;fill-opacity:1;fill-rule:evenodd;stroke:none"
         d="m 1492.11,117.379 c -0.59,-22.1485 -8.52,-40.5392 -23.71,-55.2306 -15.2,-14.7265 -34.26,-22.3476 -57.11,-22.8867 -22.93,0.5391 -41.99,8.1602 -57.19,22.8867 -15.23,14.6914 -23.08,33.0821 -23.67,55.2306 0.59,22.07 8.44,40.473 23.67,55.199 15.2,14.692 34.26,22.301 57.19,22.852 22.85,-0.551 41.91,-8.16 57.11,-22.852 15.19,-14.726 23.12,-33.129 23.71,-55.199" /><path
         id="path16"
         style="fill:#4c4c4c;fill-opacity:1;fill-rule:evenodd;stroke:none"
         d="m 1508.52,60.5508 c -0.28,-11.0625 -4.22,-20.2422 -11.84,-27.6211 -7.58,-7.3399 -17.11,-11.1289 -28.56,-11.4102 -11.48,0.2813 -20.97,4.0703 -28.55,11.4102 -7.66,7.3008 -11.6,16.5195 -11.87,27.6211 0.27,11.0078 4.21,20.2305 11.87,27.5703 7.58,7.3477 17.07,11.1797 28.55,11.4492 11.45,-0.2695 20.98,-4.1015 28.56,-11.4492 7.58,-7.3398 11.52,-16.5625 11.84,-27.5703" /><path
         id="path18"
         style="fill:#4d4d4d;fill-opacity:1;fill-rule:nonzero;stroke:none"
         d="m 325.781,54.4492 c 0.821,8.8321 -0.16,16.6406 -2.972,23.4414 -1.25,3.6289 -2.887,4.2578 -4.84,1.8789 -3.989,-5.6289 -8.75,-10.75 -14.379,-15.3203 C 297.969,59.8398 291.762,55.5508 285,51.4805 273.012,44.3008 263.199,40.6992 255.621,40.6992 c -20.422,0 -33.82,3.1719 -40.152,9.5313 -4.059,4.0703 -4.489,15.4687 -1.25,34.2187 3.941,20.3908 17.109,62.6598 39.531,126.7228 14.059,35.937 27.07,68.047 39.059,96.406 11.961,28.442 22.543,53.473 31.722,75.152 2.809,7.579 1.25,14.379 -4.691,20.321 -1.988,2.07 -8.391,4.097 -19.219,6.09 -10.422,1.129 -17.609,1.129 -21.562,0 -7.61,-1.68 -14.219,-6.68 -19.84,-15 -1.989,-2.422 -11.797,-26.411 -29.379,-72.032 -8.039,-20.859 -14.449,-37.269 -19.219,-49.218 -4.801,-11.993 -7.609,-19.61 -8.43,-22.813 -1.171,-3.988 -4.531,-5.387 -10.16,-4.219 -11.25,1.95 -20.582,3.59 -27.972,4.84 -7.418,1.25 -13.079,1.641 -17.028,1.25 -16.48,-1.25 -34.691,-7.301 -54.6912,-18.121 C 60.3516,216.328 36.9492,190.941 22.1914,157.73 7.42188,124.488 0,95.2695 0,70.0781 0,50.4688 5,34.9219 15,23.3594 25.8203,10.5508 40.6211,4.14063 59.3789,4.14063 c 29.25,0 62.2621,24.37887 99.0621,73.12887 2.809,4.0586 4.758,6.0899 5.938,6.0899 0.82,0 1.012,-1.4102 0.621,-4.2188 -1.559,-8.0508 -2.66,-14.5312 -3.281,-19.5312 -0.629,-5 -0.938,-8.5196 -0.938,-10.4688 0,-11.9922 5.309,-21.8008 15.938,-29.3711 10.621,-7.6211 29.531,-11.41012 56.722,-11.41012 5.188,0 10.309,0.23046 15.309,0.62109 5,0.32031 9.691,0.89844 14.059,1.71873 22.39,3.6406 41.961,13.8321 58.75,30.6289 1.961,1.9532 3.363,6.3321 4.222,13.1211 z M 183.59,196.641 c -0.86,-3.121 -2.891,-8.121 -6.09,-15 -3.121,-6.801 -7.5,-15.743 -13.121,-26.871 -6.367,-11.68 -12.039,-22.04 -17.039,-31.098 -5,-8.981 -9.531,-16.211 -13.59,-21.723 -6.371,-9.2888 -11.559,-16.8279 -15.629,-22.6482 -3.98,-5.75 -6.949,-9.6094 -8.902,-11.5703 C 98.7891,56.0508 88.9805,50.2305 79.8398,50.2305 66.6016,50.2305 60,57.8086 60,73.0508 c 0,18 9.4102,42.8472 28.2813,74.5272 11.9487,20 27.5387,35.352 46.7187,46.094 14.77,8.437 27.191,12.418 37.191,12.027 9.137,-0.859 12.969,-3.859 11.399,-9.058 z M 557.27,54.4492 c 0.699,8.8321 -0.321,16.6406 -3.129,23.4414 -1.172,3.6289 -2.731,4.2578 -4.692,1.8789 -17.179,-23.25 -38.199,-36.0586 -62.969,-38.4414 -38.039,-3.6679 -65.859,-0.4687 -83.429,9.5313 -4.813,2.3789 -7.192,4.4101 -7.192,6.0898 0,0.3906 0.981,1.6016 2.969,3.6016 7.582,5.5 15.313,11.75 23.121,18.75 7.821,7.0703 15.672,15 23.602,23.7502 25.621,27.57 40.039,51.008 43.277,70.308 1.133,7.192 1.723,13.942 1.723,20.313 0,28.828 -11.571,48.277 -34.692,58.277 -6.058,2.821 -14.3,4.223 -24.687,4.223 -18.363,0 -36.172,-4.844 -53.442,-14.531 -20.742,-11.172 -36.949,-28.121 -48.589,-50.942 -15.942,-31.558 -23.911,-61.168 -23.911,-88.75 0,-31.6795 10.79,-56.4802 32.348,-74.3709 18.832,-15.2383 51.25,-22.80857 97.192,-22.80857 21.949,0 41.75,1.78906 59.371,5.30857 22.379,4.0625 42.031,14.4532 58.91,31.25 1.949,1.9532 3.359,6.3321 4.219,13.1211 z M 435.391,209.301 c 11.558,0 17.339,-6.84 17.339,-20.473 0,-9.609 -4.371,-21.797 -13.121,-36.558 -13.988,-23.989 -34.379,-44.34 -61.25,-61.0981 -7.929,-5.6211 -11.879,-2.0313 -11.879,10.7771 0,17.891 6.329,40.321 19.071,67.192 5.621,11.949 13.32,21.64 23.121,29.058 9.769,7.391 18.668,11.102 26.719,11.102 z" /><path
         id="path20"
         style="fill:#4d4d4d;fill-opacity:1;fill-rule:nonzero;stroke:none"
         d="m 744.77,226.641 c -7.93,4.449 -15.469,6.718 -22.661,6.718 -22.109,0 -33.129,-12.808 -33.129,-38.437 0,-13.672 4.418,-23.672 13.29,-30 4.371,-3.242 6.558,-7.461 6.558,-12.652 0,-5.629 -3.207,-17.43 -9.527,-35.321 C 692.109,94.5313 684.84,78.3594 677.578,68.3594 664.449,49.4883 649.648,40.0781 633.199,40.0781 c -5.621,0 -11.008,1.4024 -16.09,4.2227 -7.308,3.9375 -10.937,11.9492 -10.937,24.0586 0,16.332 6.598,39.3006 19.848,68.9106 8.82,19.57 22.07,40 39.679,61.25 13.129,16.75 22.699,26.75 28.75,30 7.192,3.941 8.789,8.511 4.852,13.75 -2.821,4.058 -9.223,6.089 -19.223,6.089 -20.43,-0.859 -42.269,-10.078 -65.469,-27.66 -26.371,-20 -44.769,-45.429 -55.16,-76.25 -8.429,-25.929 -12.648,-47.9295 -12.648,-65.9295 0,-32.8203 13.98,-55.2382 42.027,-67.1914 12.383,-4.76951 25.391,-7.18747 39.063,-7.18747 47.187,0 83.75,26.16797 109.687,78.58987 17.262,34.7695 25.942,66.5705 25.942,95.3205 0,25.187 -6.25,41.398 -18.75,48.59 z" /><path
         id="path22"
         style="fill:#4d4d4d;fill-opacity:1;fill-rule:nonzero;stroke:none"
         d="m 1053.28,54.4492 c 0.82,8.8321 -0.16,16.6406 -2.97,23.4414 -1.25,3.6289 -2.89,4.2578 -4.84,1.8789 -7.62,-10.8593 -18.59,-20.2812 -32.97,-28.289 -11.99,-6.7891 -21.801,-10.3907 -29.379,-10.7813 -16.793,-0.8594 -26.793,-0.1484 -30,2.0313 -3.242,2.2695 -3.43,4.7695 -0.621,7.5 3.629,3.6406 8.441,10.8593 14.379,21.7187 4.062,7.5821 6.949,14.6914 8.742,21.25 1.758,6.5703 2.859,12.6598 3.289,18.2808 0.82,20.821 -3.75,41.02 -13.75,60.629 -4.07,8.012 -7.93,14.77 -11.57,20.313 -3.551,5.629 -7.301,10.039 -11.25,13.277 -1.988,1.571 -1.988,5.16 0,10.781 0.711,1.571 1.879,4.071 3.441,7.5 1.641,3.442 3.91,7.969 6.719,13.598 4.379,8.32 6.949,15.082 7.809,20.313 0.39,14.769 -9.18,22.578 -28.75,23.437 -10,0.391 -20.86,-2.969 -32.5,-10.156 -10.739,-6.481 -17.149,-14.692 -19.219,-24.692 -0.309,-1.992 -0.578,-3.902 -0.781,-5.781 -0.231,-1.789 -0.309,-3.429 -0.309,-5 0,-5.23 1.09,-10.308 3.281,-15.308 2.188,-5 3.047,-8.911 2.66,-11.719 -3.562,-10.742 -16.961,-32.5 -40.16,-65.313 -10.429,-14.808 -19.652,-27.5 -27.652,-38.129 -8.051,-10.6206 -14.809,-19.1402 -20.32,-25.4605 -20,-22.4297 -40.387,-35.4297 -61.25,-39.0703 -1.559,-0.4297 -2.34,-2.6094 -2.34,-6.5586 0,-7.1914 1.371,-13.832 4.062,-19.8398 0.43,-2.4219 2.457,-3.6016 6.09,-3.6016 18.438,3.6406 33.68,10.2422 45.629,19.8516 1.559,1.5586 3.551,1.3281 5.941,-0.6289 16.438,-16.8008 39.258,-24.37112 68.43,-22.81252 13.949,0.85937 24.539,2.03125 31.719,3.58982 0.39,0.3906 5.39,2.3906 15,5.9414 2.82,0.8203 5.199,0.6602 7.191,-0.4687 5.199,-3.6719 16.449,-6.0938 33.75,-7.34377 14.77,-0.70704 27.969,-0.07813 39.528,1.87107 22.391,3.6406 41.961,13.8321 58.751,30.6289 1.96,1.9532 3.36,6.3321 4.22,13.1211 z M 910.469,91.6406 c -7.617,-24.3711 -21.02,-39.7617 -40.16,-46.0898 -7.61,-2.4297 -11.829,-2.0313 -12.649,1.0898 -2.43,10.3907 -7,17.2305 -13.75,20.4688 -4.808,1.5625 -7.191,3.5117 -7.191,5.9414 0,1.25 0.98,3.2773 2.972,6.0898 5.188,5.9375 15.387,18.5196 30.618,37.8084 17.191,22.821 26.57,35.981 28.132,39.531 1.25,2.821 2.848,4.219 4.84,4.219 1.949,0.821 3.598,-0.148 4.84,-2.969 4.379,-9.609 6.57,-21.789 6.57,-36.558 0,-11.25 -1.41,-21.094 -4.222,-29.5314 z" /><path
         id="path24"
         style="fill:#4d4d4d;fill-opacity:1;fill-rule:nonzero;stroke:none"
         d="m 1313.75,54.4492 c 0.82,8.8321 -0.16,16.6406 -2.97,23.4414 -1.25,3.6289 -2.89,4.2578 -4.84,1.8789 -3.99,-5.6289 -8.75,-10.75 -14.38,-15.3203 -5.62,-4.6094 -11.83,-8.8984 -18.59,-12.9687 -11.99,-7.1797 -21.8,-10.7813 -29.38,-10.7813 -15.62,0 -25.86,0.7813 -30.62,2.3516 -10.86,2.8086 -15.27,10.1875 -13.28,22.1797 4.45,22.8203 6.87,38.0075 7.19,45.6285 1.24,10.821 -3.36,19.262 -13.76,25.313 -4.8,2.699 -5.39,5.238 -1.71,7.656 30.31,21.641 49.45,46.641 57.5,75 1.25,4.883 1.87,9.293 1.87,13.281 0,13.2 -8.05,20.621 -24.06,22.192 -14.81,1.558 -23.4,-5.281 -25.78,-20.473 -1.99,-11.988 -6.21,-25.937 -12.66,-41.879 -2.73,-7.179 -5.23,-13.238 -7.5,-18.121 -2.19,-4.808 -4.06,-8.207 -5.62,-10.156 -6.8,-8.75 -11.57,-13.363 -14.38,-13.75 -5.62,-0.434 -10.62,-0.742 -15,-0.942 -4.37,-0.23 -8.2,-0.109 -11.4,0.321 -3.25,-0.86 -5.28,-0.86 -6.1,0 -1.17,0.82 -1.52,1.789 -1.09,2.969 0.39,1.949 0.78,3.75 1.09,5.308 0.39,1.641 0.82,3.32 1.25,5 13.95,38.75 27.42,76.094 40.47,112.031 13.01,36.012 25.7,71.09 38.12,105.161 1.26,3.511 1.88,6.91 1.88,10.152 0,11.129 -9.65,17.109 -28.91,17.969 -21.99,0.39 -35.78,-6.563 -41.4,-20.942 -6.8,-18.039 -25.39,-76.828 -55.78,-176.398 C 1049.92,98.8711 1031.99,36.0508 1030,22.1094 c -1.25,-9.1797 6.17,-13.75002 22.19,-13.75002 17.58,0 27.81,3.78902 30.62,11.41012 5.08,14.7618 9.61,27.961 13.6,39.5313 4.06,11.5586 7.5,21.75 10.31,30.6211 3.2,9.5664 6.25,14.1371 9.06,13.7501 9.57,-0.742 19.77,0.668 30.63,4.219 7.89,2.808 10.86,0.199 8.9,-7.813 -2.81,-16.3671 -4.96,-29.4569 -6.4,-39.2186 -1.37,-9.8086 -1.84,-16.3281 -1.41,-19.5313 0.39,-9.1797 7.7,-16.9883 21.88,-23.4375 14.25,-6.3711 31.6,-9.53122 52.03,-9.53122 10.31,0 20.07,0.78125 29.37,2.33982 22.38,3.6406 41.95,13.8321 58.75,30.6289 1.95,1.9532 3.36,6.3321 4.22,13.1211 z" /></g></g></svg>